:SAMPLES-PER-SECOND 30
:FULLY-SPECIFIED
:DEGREES
78
root  -9.55548 39.1338 -35.902 19.4826 -60.2394 -21.298
RightUpLeg  -20.7184 -2.41537 -6.34931
RightLeg  13.7775 5.10363 1.10644
RightFoot  -2.27719 -0.858932 10.5875
RightToes  -1.74624e-010 0 -3.6325e-017
Spine  6.89316 -3.31699 7.45305
Spine1  4.8651 -3.73808 2.37759
HEad  -19.1767 35.1401 -22.488
LeftShoulder1  7.23754 -10.8929 -43.7405
LeftArm  9.85423 21.2814 -33.197
LeftForeArm  -171.698 -59.001 -165.027
LeftHand  -0.244104 0.0205437 5.32207
RightShoulder  4.18357 8.09014 30.1221
RightArm  10.2635 -52.6115 22.0538
RightForeArm  151.166 69.0958 152.137
RightHand  0.0832497 -8.00017 -5.37442
LeftUpLeg  2.0206 -2.66108 -8.43359
LeftLeg  21.681 -0.360882 0.123823
LeftFoot  -11.581 0.110412 15.9531
LeftToes  9.06232e-013 -1.14826e-010 3.0111e-013
79
root  -11.3215 39.1163 -35.4159 15.9191 -53.2497 -16.9393
RightUpLeg  -19.6232 -5.8199 -6.70847
RightLeg  8.87345 11.9184 1.97445
RightFoot  -2.54097 -1.01673 12.9217
RightToes  -1.74624e-010 0 -3.6325e-017
Spine  6.12873 -4.12497 6.23139
Spine1  4.78848 -5.09004 4.45002
HEad  -18.1177 34.3721 -22.0174
LeftShoulder1  7.1734 -10.8961 -43.3225
LeftArm  12.2483 18.4386 -33.1237
LeftForeArm  -172.235 -58.6622 -165.177
LeftHand  -0.244104 0.0205437 5.32207
RightShoulder  4.2638 8.53488 29.4403
RightArm  6.12943 -57.4684 24.2449
RightForeArm  150.358 67.5389 154.043
RightHand  0.119733 -7.70769 -7.58856
LeftUpLeg  0.792392 -3.59579 -6.27276
LeftLeg  28.6818 -4.12022 -2.10849
LeftFoot  -10.7389 0.0215962 6.47066
LeftToes  9.06232e-013 -1.14826e-010 3.0111e-013
80
root  -13.0214 38.701 -35.0042 12.53 -45.9455 -14.4031
RightUpLeg  -18.1292 -5.75996 -7.45493
RightLeg  12.0645 11.8127 2.36949
RightFoot  -3.17752 -1.03264 14.0991
RightToes  -1.74624e-010 0 -3.6325e-017
Spine  7.24542 -4.68929 5.84032
Spine1  4.97143 -5.84785 5.78759
HEad  -17.9532 31.8484 -21.2031
LeftShoulder1  7.23886 -10.9626 -43.5279
LeftArm  13.0981 15.3632 -32.6713
LeftForeArm  -175.623 -58.7824 -164.828
LeftHand  -0.244104 0.0205437 5.32207
RightShoulder  4.16133 8.25908 29.4092
RightArm  1.76781 -58.2067 28.3375
RightForeArm  151.512 66.4927 155.398
RightHand  0.123248 -7.50083 -8.39962
LeftUpLeg  -1.7729 -4.6075 -3.7219
LeftLeg  40.3966 -3.86692 -3.04542
LeftFoot  -11.3943 0.0635979 -2.54625
LeftToes  9.06232e-013 -1.14826e-010 3.0111e-013
81
root  -14.6929 37.9809 -34.6145 10.0068 -39.4859 -13.7242
RightUpLeg  -17.0097 -4.04483 -7.34496
RightLeg  20.5407 6.55325 2.31715
RightFoot  -6.16041 -0.717743 14.9131
RightToes  -1.74624e-010 0 -3.6325e-017
Spine  9.33083 -4.65897 7.10409
Spine1  4.59355 -5.36532 5.22588
HEad  -17.6659 28.197 -19.2651
LeftShoulder1  7.47867 -11.2022 -44.2757
LeftArm  12.0711 13.5665 -32.7279
LeftForeArm  -177.041 -59.5227 -164.268
LeftHand  -0.244104 0.0205437 5.32207
RightShoulder  4.22846 7.9841 30.8522
RightArm  -0.275983 -55.0161 29.8478
RightForeArm  152.922 66.703 155.323
RightHand  0.108273 -7.78414 -6.91913
LeftUpLeg  -5.44528 -4.59796 -0.750662
LeftLeg  54.0747 -1.00253 -0.879668
LeftFoot  -12.6783 0.0240887 -4.93882
LeftToes  9.06232e-013 -1.14826e-010 3.0111e-013
82
root  -16.249 37.1944 -34.2062 8.66306 -33.9229 -14.1783
RightUpLeg  -16.6581 -5.16817 -5.81577
RightLeg  30.136 2.94769 1.66094
RightFoot  -11.7042 -0.0287253 15.8262
RightToes  -1.74624e-010 0 -3.6325e-017
Spine  11.5687 -4.34499 9.6194
Spine1  3.66738 -4.20966 3.74987
HEad  -17.7983 24.4502 -17.1532
LeftShoulder1  7.87741 -11.4573 -45.9049
LeftArm  9.1522 13.8126 -33.1974
LeftForeArm  -175.532 -61.1024 -163.389
LeftHand  -0.244104 0.0205437 5.32207
RightShoulder  4.86349 8.41493 34.8124
RightArm  0.752215 -47.4055 25.7309
RightForeArm  149.956 68.7019 152.459
RightHand  0.131199 -8.8887 -5.61956
LeftUpLeg  -10.8021 -3.85523 2.28264
LeftLeg  67.1325 0.980491 3.266
LeftFoot  -13.3288 0.040806 -2.17508
LeftToes  9.06232e-013 -1.14826e-010 3.0111e-013
83
root  -17.6368 36.6198 -33.6851 7.85974 -29.045 -14.6897
RightUpLeg  -15.7986 -8.14255 -4.19636
RightLeg  37.1525 1.9863 1.35794
RightFoot  -17.6868 0.78316 16.2604
RightToes  -1.74624e-010 0 -3.6325e-017
Spine  13.3323 -3.85661 12.4818
Spine1  3.25159 -2.78374 2.10804
HEad  -18.8221 20.7463 -16.0168
LeftShoulder1  8.43429 -11.7449 -48.273
LeftArm  5.26964 15.8893 -33.0494
LeftForeArm  -175.221 -63.3076 -161.855
LeftHand  -0.244104 0.0205437 5.32207
RightShoulder  5.75598 9.16064 39.3562
RightArm  1.49361 -36.2984 20.4215
RightForeArm  143.617 71.7647 146.77
RightHand  0.209672 -10.8741 -5.46465
LeftUpLeg  -17.1948 -2.76628 4.22848
LeftLeg  76.6489 0.97139 5.95252
LeftFoot  -13.359 0.0780672 -0.120355
LeftToes  9.06232e-013 -1.14826e-010 3.0111e-013
84
root  -18.919 36.4538 -32.9004 7.00774 -25.2611 -14.2376
RightUpLeg  -12.9758 -10.5835 -3.58992
RightLeg  39.1699 1.61322 1.12484
RightFoot  -21.7295 1.31937 16.0537
RightToes  -1.74624e-010 0 -3.6325e-017
Spine  13.8794 -2.67958 15.026
Spine1  3.89005 -0.583322 -0.622459
HEad  -19.6792 16.4959 -15.1305
LeftShoulder1  8.91726 -12.0519 -50.043
LeftArm  2.59917 19.4891 -31.42
LeftForeArm  -177.571 -64.7647 -160.472
LeftHand  -0.244104 0.0205437 5.32207
RightShoulder  6.21791 9.57651 41.3296
RightArm  -0.830055 -26.2177 19.5324
RightForeArm  140.828 73.4339 142.942
RightHand  0.247683 -12.4341 -5.00572
LeftUpLeg  -23.0863 -0.824631 3.81723
LeftLeg  80.6499 0.558833 6.37265
LeftFoot  -13.8054 0.0708608 -0.508906
LeftToes  9.06232e-013 -1.14826e-010 3.0111e-013
85
root  -20.1373 36.7162 -31.7952 6.36784 -22.4941 -12.4178
RightUpLeg  -8.70091 -11.8345 -4.30034
RightLeg  36.8192 0.597071 0.221169
RightFoot  -23.1365 1.49623 15.8982
RightToes  -1.74624e-010 0 -3.6325e-017
Spine  13.1793 -0.69389 16.6785
Spine1  4.58311 2.447 -4.75615
HEad  -19.3301 11.8616 -13.1558
LeftShoulder1  8.88591 -12.0228 -49.9519
LeftArm  2.75048 24.1042 -28.4029
LeftForeArm  -179.954 -64.1568 -160.717
LeftHand  -0.244104 0.0205437 5.32207
RightShoulder  6.07959 9.523 40.4988
RightArm  -5.25138 -20.853 23.5133
RightForeArm  145.63 71.7118 147.066
RightHand  0.225515 -12.3909 -4.67985
LeftUpLeg  -27.805 1.91126 0.816787
LeftLeg  78.9822 0.837117 6.88014
LeftFoot  -14.9717 0.0570608 -1.06222
LeftToes  9.06232e-013 -1.14826e-010 3.0111e-013
86
root  -21.2617 37.3786 -30.3947 6.28598 -19.6057 -9.69287
RightUpLeg  -3.80095 -13.4032 -6.12163
RightLeg  31.7321 -0.335001 -0.481066
RightFoot  -21.636 1.36984 16.7531
RightToes  -1.74624e-010 0 -3.6325e-017
Spine  11.887 1.40806 16.8362
Spine1  4.19158 5.17853 -8.82165
HEad  -17.8591 7.84485 -10.3308
LeftShoulder1  8.33418 -11.5228 -48.4026
LeftArm  4.57255 28.8358 -24.9992
LeftForeArm  179.092 -62.1794 -162.158
LeftHand  -0.244104 0.0205437 5.32207
RightShoulder  5.7706 9.22006 39.255
RightArm  -8.37977 -18.9504 28.669
RightForeArm  151.166 67.4619 154.224
RightHand  0.248159 -11.3991 -5.79454
LeftUpLeg  -31.1454 4.32352 -3.74094
LeftLeg  72.1649 2.27859 8.78413
LeftFoot  -15.9638 0.0638195 -0.786719
LeftToes  9.06232e-013 -1.14826e-010 3.0111e-013
87
root  -22.2283 38.3284 -28.7787 6.88954 -16.026 -7.00755
RightUpLeg  1.39939 -16.7601 -8.63555
RightLeg  24.9772 0.375852 -0.0897586
RightFoot  -16.5257 0.75479 19.3992
RightToes  -1.74624e-010 0 -3.6325e-017
Spine  10.1406 3.06873 15.6395
Spine1  3.24033 6.81772 -11.4774
HEad  -15.5953 5.07521 -8.01481
LeftShoulder1  7.78903 -11.0088 -46.8206
LeftArm  5.61637 33.4726 -22.3993
LeftForeArm  179.614 -60.504 -163.363
LeftHand  -0.244104 0.0205437 5.32207
RightShoulder  5.58783 8.90693 38.9407
RightArm  -8.10468 -17.5118 31.7083
RightForeArm  154.052 63.8077 158.378
RightHand  0.249773 -10.1788 -7.03958
LeftUpLeg  -32.6028 6.11503 -8.50253
LeftLeg  60.7483 4.99616 10.1732
LeftFoot  -16.2867 0.0615292 -0.833949
LeftToes  9.06232e-013 -1.14826e-010 3.0111e-013
88
root  -23.042 39.2703 -27.0487 7.74722 -12.2334 -5.19112
RightUpLeg  6.47272 -20.5591 -11.05
RightLeg  18.4852 2.11984 0.773616
RightFoot  -8.16543 -0.697383 22.7415
RightToes  -1.74624e-010 0 -3.6325e-017
Spine  8.07966 4.26201 14.0596
Spine1  2.91946 7.70326 -12.4882
HEad  -12.8309 3.35841 -6.86806
LeftShoulder1  7.61808 -10.9653 -45.9042
LeftArm  4.93875 38.2292 -21.054
LeftForeArm  -178.483 -59.4953 -164.162
LeftHand  -0.244104 0.0205437 5.32207
RightShoulder  5.51328 8.76766 38.8478
RightArm  -5.36422 -15.874 32.8109
RightForeArm  156.707 62.0071 160.128
RightHand  0.179697 -9.55262 -6.21672
LeftUpLeg  -31.751 7.8257 -12.4911
LeftLeg  46.2824 7.24949 8.57457
LeftFoot  -16.5286 0.0625095 -0.817213
LeftToes  9.06232e-013 -1.14826e-010 3.0111e-013
